<svg width="244" height="618" viewBox="0 0 244 618" fill="none" xmlns="http://www.w3.org/2000/svg">
<g opacity="0.1">
<circle cx="24.625" cy="612.629" r="4.87503" transform="rotate(-90 24.625 612.629)" fill="#121648"/>
<circle cx="24.625" cy="576.878" r="4.87503" transform="rotate(-90 24.625 576.878)" fill="#121648"/>
<circle cx="24.625" cy="541.128" r="4.87503" transform="rotate(-90 24.625 541.128)" fill="#121648"/>
<circle cx="24.625" cy="505.378" r="4.87503" transform="rotate(-90 24.625 505.378)" fill="#121648"/>
<circle cx="24.625" cy="469.628" r="4.87503" transform="rotate(-90 24.625 469.628)" fill="#121648"/>
<circle cx="24.625" cy="433.878" r="4.87503" transform="rotate(-90 24.625 433.878)" fill="#121648"/>
<circle cx="24.625" cy="398.128" r="4.87503" transform="rotate(-90 24.625 398.128)" fill="#121648"/>
<circle cx="24.625" cy="183.626" r="4.87503" transform="rotate(-90 24.625 183.626)" fill="#121648"/>
<circle cx="24.625" cy="362.377" r="4.87503" transform="rotate(-90 24.625 362.377)" fill="#121648"/>
<circle cx="24.625" cy="147.876" r="4.87503" transform="rotate(-90 24.625 147.876)" fill="#121648"/>
<circle cx="24.625" cy="326.626" r="4.87503" transform="rotate(-90 24.625 326.626)" fill="#121648"/>
<circle cx="24.625" cy="112.125" r="4.87503" transform="rotate(-90 24.625 112.125)" fill="#121648"/>
<circle cx="24.625" cy="290.876" r="4.87503" transform="rotate(-90 24.625 290.876)" fill="#121648"/>
<circle cx="24.625" cy="76.375" r="4.87503" transform="rotate(-90 24.625 76.375)" fill="#121648"/>
<circle cx="24.625" cy="255.127" r="4.87503" transform="rotate(-90 24.625 255.127)" fill="#121648"/>
<circle cx="24.625" cy="40.6259" r="4.87503" transform="rotate(-90 24.625 40.6259)" fill="#121648"/>
<circle cx="24.625" cy="219.377" r="4.87503" transform="rotate(-90 24.625 219.377)" fill="#121648"/>
<circle cx="24.625" cy="4.87497" r="4.87503" transform="rotate(-90 24.625 4.87497)" fill="#121648"/>
<circle cx="60.375" cy="612.629" r="4.87503" transform="rotate(-90 60.375 612.629)" fill="#121648"/>
<circle cx="60.375" cy="576.878" r="4.87503" transform="rotate(-90 60.375 576.878)" fill="#121648"/>
<circle cx="60.375" cy="541.128" r="4.87503" transform="rotate(-90 60.375 541.128)" fill="#121648"/>
<circle cx="60.375" cy="505.378" r="4.87503" transform="rotate(-90 60.375 505.378)" fill="#121648"/>
<circle cx="60.375" cy="469.628" r="4.87503" transform="rotate(-90 60.375 469.628)" fill="#121648"/>
<circle cx="60.375" cy="433.878" r="4.87503" transform="rotate(-90 60.375 433.878)" fill="#121648"/>
<circle cx="60.375" cy="398.128" r="4.87503" transform="rotate(-90 60.375 398.128)" fill="#121648"/>
<circle cx="60.375" cy="183.626" r="4.87503" transform="rotate(-90 60.375 183.626)" fill="#121648"/>
<circle cx="60.375" cy="362.377" r="4.87503" transform="rotate(-90 60.375 362.377)" fill="#121648"/>
<circle cx="60.375" cy="147.876" r="4.87503" transform="rotate(-90 60.375 147.876)" fill="#121648"/>
<circle cx="60.375" cy="326.626" r="4.87503" transform="rotate(-90 60.375 326.626)" fill="#121648"/>
<circle cx="60.375" cy="112.125" r="4.87503" transform="rotate(-90 60.375 112.125)" fill="#121648"/>
<circle cx="60.375" cy="290.876" r="4.87503" transform="rotate(-90 60.375 290.876)" fill="#121648"/>
<circle cx="60.375" cy="76.375" r="4.87503" transform="rotate(-90 60.375 76.375)" fill="#121648"/>
<circle cx="60.375" cy="255.127" r="4.87503" transform="rotate(-90 60.375 255.127)" fill="#121648"/>
<circle cx="60.375" cy="40.6259" r="4.87503" transform="rotate(-90 60.375 40.6259)" fill="#121648"/>
<circle cx="60.375" cy="219.377" r="4.87503" transform="rotate(-90 60.375 219.377)" fill="#121648"/>
<circle cx="60.375" cy="4.87497" r="4.87503" transform="rotate(-90 60.375 4.87497)" fill="#121648"/>
<circle cx="96.127" cy="612.629" r="4.87503" transform="rotate(-90 96.127 612.629)" fill="#121648"/>
<circle cx="96.127" cy="576.878" r="4.87503" transform="rotate(-90 96.127 576.878)" fill="#121648"/>
<circle cx="96.127" cy="541.128" r="4.87503" transform="rotate(-90 96.127 541.128)" fill="#121648"/>
<circle cx="96.127" cy="505.378" r="4.87503" transform="rotate(-90 96.127 505.378)" fill="#121648"/>
<circle cx="96.127" cy="469.628" r="4.87503" transform="rotate(-90 96.127 469.628)" fill="#121648"/>
<circle cx="96.127" cy="433.878" r="4.87503" transform="rotate(-90 96.127 433.878)" fill="#121648"/>
<circle cx="96.127" cy="398.128" r="4.87503" transform="rotate(-90 96.127 398.128)" fill="#121648"/>
<circle cx="96.127" cy="183.626" r="4.87503" transform="rotate(-90 96.127 183.626)" fill="#121648"/>
<circle cx="96.127" cy="362.377" r="4.87503" transform="rotate(-90 96.127 362.377)" fill="#121648"/>
<circle cx="96.127" cy="147.876" r="4.87503" transform="rotate(-90 96.127 147.876)" fill="#121648"/>
<circle cx="96.127" cy="326.626" r="4.87503" transform="rotate(-90 96.127 326.626)" fill="#121648"/>
<circle cx="96.127" cy="112.125" r="4.87503" transform="rotate(-90 96.127 112.125)" fill="#121648"/>
<circle cx="96.127" cy="290.876" r="4.87503" transform="rotate(-90 96.127 290.876)" fill="#121648"/>
<circle cx="96.127" cy="76.375" r="4.87503" transform="rotate(-90 96.127 76.375)" fill="#121648"/>
<circle cx="96.127" cy="255.127" r="4.87503" transform="rotate(-90 96.127 255.127)" fill="#121648"/>
<circle cx="96.127" cy="40.6259" r="4.87503" transform="rotate(-90 96.127 40.6259)" fill="#121648"/>
<circle cx="96.127" cy="219.377" r="4.87503" transform="rotate(-90 96.127 219.377)" fill="#121648"/>
<circle cx="96.127" cy="4.87497" r="4.87503" transform="rotate(-90 96.127 4.87497)" fill="#121648"/>
<circle cx="131.877" cy="612.629" r="4.87503" transform="rotate(-90 131.877 612.629)" fill="#121648"/>
<circle cx="131.877" cy="576.878" r="4.87503" transform="rotate(-90 131.877 576.878)" fill="#121648"/>
<circle cx="131.877" cy="541.128" r="4.87503" transform="rotate(-90 131.877 541.128)" fill="#121648"/>
<circle cx="131.877" cy="505.378" r="4.87503" transform="rotate(-90 131.877 505.378)" fill="#121648"/>
<circle cx="131.877" cy="469.628" r="4.87503" transform="rotate(-90 131.877 469.628)" fill="#121648"/>
<circle cx="131.877" cy="433.878" r="4.87503" transform="rotate(-90 131.877 433.878)" fill="#121648"/>
<circle cx="131.877" cy="398.128" r="4.87503" transform="rotate(-90 131.877 398.128)" fill="#121648"/>
<circle cx="131.877" cy="183.626" r="4.87503" transform="rotate(-90 131.877 183.626)" fill="#121648"/>
<circle cx="131.877" cy="362.377" r="4.87503" transform="rotate(-90 131.877 362.377)" fill="#121648"/>
<circle cx="131.877" cy="147.876" r="4.87503" transform="rotate(-90 131.877 147.876)" fill="#121648"/>
<circle cx="131.877" cy="326.626" r="4.87503" transform="rotate(-90 131.877 326.626)" fill="#121648"/>
<circle cx="131.877" cy="112.125" r="4.87503" transform="rotate(-90 131.877 112.125)" fill="#121648"/>
<circle cx="131.877" cy="290.876" r="4.87503" transform="rotate(-90 131.877 290.876)" fill="#121648"/>
<circle cx="131.877" cy="76.375" r="4.87503" transform="rotate(-90 131.877 76.375)" fill="#121648"/>
<circle cx="131.877" cy="255.127" r="4.87503" transform="rotate(-90 131.877 255.127)" fill="#121648"/>
<circle cx="131.877" cy="40.6259" r="4.87503" transform="rotate(-90 131.877 40.6259)" fill="#121648"/>
<circle cx="131.877" cy="219.377" r="4.87503" transform="rotate(-90 131.877 219.377)" fill="#121648"/>
<circle cx="131.877" cy="4.87497" r="4.87503" transform="rotate(-90 131.877 4.87497)" fill="#121648"/>
<circle cx="167.625" cy="612.629" r="4.87503" transform="rotate(-90 167.625 612.629)" fill="#121648"/>
<circle cx="167.625" cy="576.879" r="4.87503" transform="rotate(-90 167.625 576.879)" fill="#121648"/>
<circle cx="167.625" cy="541.128" r="4.87503" transform="rotate(-90 167.625 541.128)" fill="#121648"/>
<circle cx="167.625" cy="505.378" r="4.87503" transform="rotate(-90 167.625 505.378)" fill="#121648"/>
<circle cx="167.625" cy="469.628" r="4.87503" transform="rotate(-90 167.625 469.628)" fill="#121648"/>
<circle cx="167.625" cy="433.878" r="4.87503" transform="rotate(-90 167.625 433.878)" fill="#121648"/>
<circle cx="167.625" cy="398.128" r="4.87503" transform="rotate(-90 167.625 398.128)" fill="#121648"/>
<circle cx="167.625" cy="183.626" r="4.87503" transform="rotate(-90 167.625 183.626)" fill="#121648"/>
<circle cx="167.625" cy="362.377" r="4.87503" transform="rotate(-90 167.625 362.377)" fill="#121648"/>
<circle cx="167.625" cy="147.876" r="4.87503" transform="rotate(-90 167.625 147.876)" fill="#121648"/>
<circle cx="167.625" cy="326.626" r="4.87503" transform="rotate(-90 167.625 326.626)" fill="#121648"/>
<circle cx="167.625" cy="112.125" r="4.87503" transform="rotate(-90 167.625 112.125)" fill="#121648"/>
<circle cx="167.625" cy="290.876" r="4.87503" transform="rotate(-90 167.625 290.876)" fill="#121648"/>
<circle cx="167.625" cy="76.375" r="4.87503" transform="rotate(-90 167.625 76.375)" fill="#121648"/>
<circle cx="167.625" cy="255.127" r="4.87503" transform="rotate(-90 167.625 255.127)" fill="#121648"/>
<circle cx="167.625" cy="40.6259" r="4.87503" transform="rotate(-90 167.625 40.6259)" fill="#121648"/>
<circle cx="167.625" cy="219.377" r="4.87503" transform="rotate(-90 167.625 219.377)" fill="#121648"/>
<circle cx="167.625" cy="4.87495" r="4.87503" transform="rotate(-90 167.625 4.87495)" fill="#121648"/>
<circle cx="203.375" cy="612.629" r="4.87503" transform="rotate(-90 203.375 612.629)" fill="#121648"/>
<circle cx="203.375" cy="576.878" r="4.87503" transform="rotate(-90 203.375 576.878)" fill="#121648"/>
<circle cx="203.375" cy="541.128" r="4.87503" transform="rotate(-90 203.375 541.128)" fill="#121648"/>
<circle cx="203.375" cy="505.378" r="4.87503" transform="rotate(-90 203.375 505.378)" fill="#121648"/>
<circle cx="203.375" cy="469.628" r="4.87503" transform="rotate(-90 203.375 469.628)" fill="#121648"/>
<circle cx="203.375" cy="433.878" r="4.87503" transform="rotate(-90 203.375 433.878)" fill="#121648"/>
<circle cx="203.375" cy="398.128" r="4.87503" transform="rotate(-90 203.375 398.128)" fill="#121648"/>
<circle cx="203.375" cy="183.626" r="4.87503" transform="rotate(-90 203.375 183.626)" fill="#121648"/>
<circle cx="203.375" cy="362.377" r="4.87503" transform="rotate(-90 203.375 362.377)" fill="#121648"/>
<circle cx="203.375" cy="147.876" r="4.87503" transform="rotate(-90 203.375 147.876)" fill="#121648"/>
<circle cx="203.375" cy="326.626" r="4.87503" transform="rotate(-90 203.375 326.626)" fill="#121648"/>
<circle cx="203.375" cy="112.125" r="4.87503" transform="rotate(-90 203.375 112.125)" fill="#121648"/>
<circle cx="203.375" cy="290.876" r="4.87503" transform="rotate(-90 203.375 290.876)" fill="#121648"/>
<circle cx="203.375" cy="76.375" r="4.87503" transform="rotate(-90 203.375 76.375)" fill="#121648"/>
<circle cx="203.375" cy="255.127" r="4.87503" transform="rotate(-90 203.375 255.127)" fill="#121648"/>
<circle cx="203.375" cy="40.6259" r="4.87503" transform="rotate(-90 203.375 40.6259)" fill="#121648"/>
<circle cx="203.375" cy="219.377" r="4.87503" transform="rotate(-90 203.375 219.377)" fill="#121648"/>
<circle cx="203.375" cy="4.87495" r="4.87503" transform="rotate(-90 203.375 4.87495)" fill="#121648"/>
<circle cx="239.125" cy="612.629" r="4.87503" transform="rotate(-90 239.125 612.629)" fill="#121648"/>
<circle cx="239.125" cy="576.878" r="4.87503" transform="rotate(-90 239.125 576.878)" fill="#121648"/>
<circle cx="239.125" cy="541.128" r="4.87503" transform="rotate(-90 239.125 541.128)" fill="#121648"/>
<circle cx="239.125" cy="505.378" r="4.87503" transform="rotate(-90 239.125 505.378)" fill="#121648"/>
<circle cx="239.125" cy="469.628" r="4.87503" transform="rotate(-90 239.125 469.628)" fill="#121648"/>
<circle cx="239.125" cy="433.878" r="4.87503" transform="rotate(-90 239.125 433.878)" fill="#121648"/>
<circle cx="239.125" cy="398.128" r="4.87503" transform="rotate(-90 239.125 398.128)" fill="#121648"/>
<circle cx="239.125" cy="183.626" r="4.87503" transform="rotate(-90 239.125 183.626)" fill="#121648"/>
<circle cx="239.125" cy="362.377" r="4.87503" transform="rotate(-90 239.125 362.377)" fill="#121648"/>
<circle cx="239.125" cy="147.876" r="4.87503" transform="rotate(-90 239.125 147.876)" fill="#121648"/>
<circle cx="239.125" cy="326.626" r="4.87503" transform="rotate(-90 239.125 326.626)" fill="#121648"/>
<circle cx="239.125" cy="112.125" r="4.87503" transform="rotate(-90 239.125 112.125)" fill="#121648"/>
<circle cx="239.125" cy="290.876" r="4.87503" transform="rotate(-90 239.125 290.876)" fill="#121648"/>
<circle cx="239.125" cy="76.375" r="4.87503" transform="rotate(-90 239.125 76.375)" fill="#121648"/>
<circle cx="239.125" cy="255.127" r="4.87503" transform="rotate(-90 239.125 255.127)" fill="#121648"/>
<circle cx="239.125" cy="40.626" r="4.87503" transform="rotate(-90 239.125 40.626)" fill="#121648"/>
<circle cx="239.125" cy="219.377" r="4.87503" transform="rotate(-90 239.125 219.377)" fill="#121648"/>
<circle cx="239.125" cy="4.87507" r="4.87503" transform="rotate(-90 239.125 4.87507)" fill="#121648"/>
</g>
</svg>
