<svg width="50" height="50" viewBox="0 0 50 50" fill="none" xmlns="http://www.w3.org/2000/svg">
<g clip-path="url(#clip0_58_1236)">
<path d="M25 4.01497e-07C27.7526 -0.00107118 30.4286 0.906447 32.6126 2.58172C34.7967 4.25699 36.3667 6.60632 37.079 9.26512C37.7914 11.9239 37.6062 14.7435 36.5522 17.2863C35.4982 19.8291 33.6344 21.9529 31.25 23.3281L31.25 43.75C31.2504 43.9553 31.2103 44.1587 31.132 44.3485C31.0537 44.5383 30.9388 44.7109 30.7938 44.8562L26.1063 49.5437C25.9611 49.6893 25.7887 49.8047 25.5989 49.8835C25.409 49.9622 25.2055 50.0028 25 50.0028C24.7945 50.0028 24.591 49.9622 24.4012 49.8835C24.2113 49.8047 24.0389 49.6893 23.8938 49.5437L19.2063 44.8562C19.0607 44.7111 18.9453 44.5387 18.8665 44.3489C18.7878 44.159 18.7472 43.9555 18.7472 43.75C18.7472 43.5445 18.7878 43.341 18.8665 43.1511C18.9453 42.9613 19.0607 42.7889 19.2063 42.6437L21.2281 40.625L19.2063 38.6062C19.0607 38.4611 18.9453 38.2887 18.8665 38.0989C18.7878 37.909 18.7472 37.7055 18.7472 37.5C18.7472 37.2945 18.7878 37.091 18.8665 36.9011C18.9453 36.7113 19.0607 36.5389 19.2063 36.3937L21.2281 34.375L19.2063 32.3562C19.0607 32.2111 18.9453 32.0387 18.8665 31.8489C18.7878 31.659 18.7472 31.4555 18.7472 31.25C18.7472 31.0445 18.7878 30.841 18.8665 30.6511C18.9453 30.4613 19.0607 30.2889 19.2063 30.1437L21.2281 28.125L19.2063 26.1062C19.0613 25.9609 18.9463 25.7883 18.868 25.5985C18.7898 25.4087 18.7496 25.2053 18.75 25L18.75 23.3281C16.3656 21.9529 14.5018 19.8291 13.4478 17.2863C12.3938 14.7435 12.2086 11.9239 12.921 9.26512C13.6333 6.60632 15.2033 4.25698 17.3874 2.58172C19.5715 0.906446 22.2474 -0.00107142 25 4.01497e-07ZM34.375 12.5C34.3744 10.8223 33.9236 9.17554 33.0696 7.73146C32.2156 6.28739 30.9897 5.09894 29.5199 4.29009C28.0501 3.48124 26.3901 3.08162 24.7132 3.13294C23.0363 3.18426 21.4039 3.68463 19.9863 4.58185C18.5687 5.47906 17.4178 6.74025 16.6537 8.23384C15.8897 9.72743 15.5404 11.3987 15.6423 13.0733C15.7443 14.7479 16.2937 16.3644 17.2334 17.7543C18.173 19.1441 19.4684 20.2564 20.9844 20.975C21.2508 21.1019 21.4758 21.3016 21.6334 21.551C21.791 21.8004 21.8748 22.0893 21.875 22.3844L21.875 24.3531L24.5438 27.0187C24.6893 27.1639 24.8047 27.3363 24.8835 27.5261C24.9623 27.716 25.0028 27.9195 25.0028 28.125C25.0028 28.3305 24.9623 28.534 24.8835 28.7239C24.8047 28.9137 24.6893 29.0861 24.5438 29.2312L22.5219 31.25L24.5438 33.2687C24.6893 33.4139 24.8047 33.5863 24.8835 33.7761C24.9623 33.966 25.0028 34.1695 25.0028 34.375C25.0028 34.5805 24.9623 34.784 24.8835 34.9739C24.8047 35.1637 24.6893 35.3361 24.5438 35.4812L22.5219 37.5L24.5438 39.5187C24.6893 39.6639 24.8047 39.8363 24.8835 40.0261C24.9623 40.216 25.0028 40.4195 25.0028 40.625C25.0028 40.8305 24.9623 41.034 24.8835 41.2239C24.8047 41.4137 24.6893 41.5861 24.5438 41.7312L22.5219 43.75L25 46.2281L28.125 43.1031L28.125 22.3844C28.1253 22.0893 28.209 21.8004 28.3666 21.551C28.5243 21.3016 28.7493 21.1019 29.0156 20.975C30.6197 20.2147 31.9749 19.0145 32.9236 17.5142C33.8724 16.0139 34.3757 14.2751 34.375 12.5Z" fill="white"/>
<path d="M25 12.5C24.1712 12.5 23.3763 12.1708 22.7903 11.5847C22.2042 10.9987 21.875 10.2038 21.875 9.375C21.875 8.5462 22.2042 7.75134 22.7903 7.16529C23.3763 6.57924 24.1712 6.25 25 6.25C25.8288 6.25 26.6237 6.57924 27.2097 7.16529C27.7958 7.75134 28.125 8.5462 28.125 9.375C28.125 10.2038 27.7958 10.9987 27.2097 11.5847C26.6237 12.1708 25.8288 12.5 25 12.5Z" fill="white"/>
</g>
<defs>
<clipPath id="clip0_58_1236">
<rect width="50" height="50" fill="white" transform="translate(50) rotate(90)"/>
</clipPath>
</defs>
</svg>
